<svg width="24" height="24" viewBox="0 0 24 24" fill="none" xmlns="http://www.w3.org/2000/svg">
<g clip-path="url(#clip0_157_776)">
<path d="M13 8C13.7956 8 14.5587 8.31607 15.1213 8.87868C15.6839 9.44129 16 10.2044 16 11C16 11.2652 16.1054 11.5196 16.2929 11.7071C16.4804 11.8946 16.7348 12 17 12C17.2652 12 17.5196 11.8946 17.7071 11.7071C17.8946 11.5196 18 11.2652 18 11C18 9.67392 17.4732 8.40215 16.5355 7.46447C15.5979 6.52678 14.3261 6 13 6C12.7348 6 12.4804 6.10536 12.2929 6.29289C12.1054 6.48043 12 6.73478 12 7C12 7.26522 12.1054 7.51957 12.2929 7.70711C12.4804 7.89464 12.7348 8 13 8Z" fill="#D72128"/>
<path d="M13.2 2.4C15.4278 2.4 17.5644 3.285 19.1397 4.8603C20.715 6.43561 21.6 8.57218 21.6 10.8C21.6 11.1183 21.7264 11.4235 21.9515 11.6485C22.1765 11.8736 22.4817 12 22.8 12C23.1183 12 23.4235 11.8736 23.6485 11.6485C23.8736 11.4235 24 11.1183 24 10.8C24 7.93566 22.8621 5.18864 20.8367 3.16325C18.8114 1.13785 16.0643 0 13.2 0C12.8817 0 12.5765 0.126428 12.3515 0.351472C12.1264 0.576515 12 0.88174 12 1.2C12 1.51826 12.1264 1.82348 12.3515 2.04853C12.5765 2.27357 12.8817 2.4 13.2 2.4ZM23.7 16.692C23.634 16.4994 23.5201 16.3267 23.3689 16.1902C23.2178 16.0538 23.0344 15.958 22.836 15.912L15.636 14.268C15.4406 14.2237 15.2371 14.229 15.0443 14.2835C14.8515 14.338 14.6753 14.4399 14.532 14.58C14.364 14.736 14.352 14.748 13.572 16.236C10.9838 15.0434 8.90999 12.961 7.728 10.368C9.252 9.6 9.264 9.6 9.42 9.42C9.56005 9.27667 9.66198 9.10054 9.71648 8.9077C9.77098 8.71486 9.77631 8.51144 9.732 8.316L8.088 1.2C8.04197 1.00164 7.94623 0.818245 7.80977 0.667094C7.67332 0.515943 7.50064 0.402003 7.308 0.336C7.02776 0.235907 6.73837 0.16356 6.444 0.12C6.1407 0.0496742 5.8312 0.00947921 5.52 0C4.056 0 2.65197 0.58157 1.61677 1.61677C0.58157 2.65197 0 4.05601 0 5.52C0.0063503 10.4193 1.95538 15.116 5.41968 18.5803C8.88398 22.0446 13.5807 23.9937 18.48 24C19.2049 24 19.9227 23.8572 20.5924 23.5798C21.2621 23.3024 21.8706 22.8958 22.3832 22.3832C22.8958 21.8707 23.3024 21.2621 23.5798 20.5924C23.8572 19.9227 24 19.2049 24 18.48C24.0004 18.1746 23.9763 17.8696 23.928 17.568C23.8776 17.2699 23.8013 16.9768 23.7 16.692Z" fill="#D72128"/>
</g>
<defs>
<clipPath id="clip0_157_776">
<rect width="24" height="24" fill="white"/>
</clipPath>
</defs>
</svg>
