<svg width="60" height="60" viewBox="0 0 60 60" fill="none" xmlns="http://www.w3.org/2000/svg">
<path d="M47.5 35H52.5V18.8125C52.5 17.9792 52.3125 17.2083 51.9375 16.5C51.5625 15.7917 51.0417 15.2083 50.375 14.75L37.875 5.8125C37 5.1875 36.0417 4.875 35 4.875C33.9583 4.875 33 5.1875 32.125 5.8125L19.625 14.75C18.9583 15.2083 18.4375 15.7917 18.0625 16.5C17.6875 17.2083 17.5 17.9792 17.5 18.8125V22.5H22.5V18.75L35 10L47.5 18.75V35ZM37.5 20C37.1667 20 36.875 19.875 36.625 19.625C36.375 19.375 36.25 19.0833 36.25 18.75C36.25 18.4167 36.375 18.125 36.625 17.875C36.875 17.625 37.1667 17.5 37.5 17.5C37.8333 17.5 38.125 17.625 38.375 17.875C38.625 18.125 38.75 18.4167 38.75 18.75C38.75 19.0833 38.625 19.375 38.375 19.625C38.125 19.875 37.8333 20 37.5 20ZM32.5 20C32.1667 20 31.875 19.875 31.625 19.625C31.375 19.375 31.25 19.0833 31.25 18.75C31.25 18.4167 31.375 18.125 31.625 17.875C31.875 17.625 32.1667 17.5 32.5 17.5C32.8333 17.5 33.125 17.625 33.375 17.875C33.625 18.125 33.75 18.4167 33.75 18.75C33.75 19.0833 33.625 19.375 33.375 19.625C33.125 19.875 32.8333 20 32.5 20ZM37.5 25C37.1667 25 36.875 24.875 36.625 24.625C36.375 24.375 36.25 24.0833 36.25 23.75C36.25 23.4167 36.375 23.125 36.625 22.875C36.875 22.625 37.1667 22.5 37.5 22.5C37.8333 22.5 38.125 22.625 38.375 22.875C38.625 23.125 38.75 23.4167 38.75 23.75C38.75 24.0833 38.625 24.375 38.375 24.625C38.125 24.875 37.8333 25 37.5 25ZM32.5 25C32.1667 25 31.875 24.875 31.625 24.625C31.375 24.375 31.25 24.0833 31.25 23.75C31.25 23.4167 31.375 23.125 31.625 22.875C31.875 22.625 32.1667 22.5 32.5 22.5C32.8333 22.5 33.125 22.625 33.375 22.875C33.625 23.125 33.75 23.4167 33.75 23.75C33.75 24.0833 33.625 24.375 33.375 24.625C33.125 24.875 32.8333 25 32.5 25ZM34.875 51L49.75 46.375C49.5417 46 49.24 45.6775 48.845 45.4075C48.4483 45.1358 48 45 47.5 45H34.875C33.75 45 32.8542 44.9583 32.1875 44.875C31.5208 44.7917 30.8333 44.625 30.125 44.375L26.5625 43.1875C25.8958 42.9792 25.4167 42.5625 25.125 41.9375C24.8333 41.3125 24.7917 40.6667 25 40C25.2083 39.3333 25.615 38.8433 26.22 38.53C26.8233 38.2183 27.4583 38.1667 28.125 38.375L30.75 39.25C31.4583 39.4583 32.2608 39.625 33.1575 39.75C34.0525 39.875 35.2708 39.9583 36.8125 40H37.5C37.5 39.5417 37.365 39.1042 37.095 38.6875C36.8233 38.2708 36.5 38 36.125 37.875L21.5 32.5H17.5V46.25L34.875 51ZM33.5625 55.875L17.5 51.375C17.1667 52.4583 16.5108 53.3333 15.5325 54C14.5525 54.6667 13.5417 55 12.5 55H7.5C6.125 55 4.94833 54.5108 3.97 53.5325C2.99 52.5525 2.5 51.375 2.5 50V32.5C2.5 31.125 2.99 29.9475 3.97 28.9675C4.94833 27.9892 6.125 27.5 7.5 27.5H21.5C21.7917 27.5 22.0833 27.5308 22.375 27.5925C22.6667 27.6558 22.9375 27.7292 23.1875 27.8125L37.875 33.25C39.25 33.75 40.365 34.625 41.22 35.875C42.0733 37.125 42.5 38.5 42.5 40H47.5C49.5833 40 51.3542 40.6875 52.8125 42.0625C54.2708 43.4375 55 45.25 55 47.5C55 48.4167 54.76 49.1358 54.28 49.6575C53.8017 50.1775 53.0625 50.6042 52.0625 50.9375L36.4375 55.8125C35.9792 55.9792 35.5 56.0625 35 56.0625C34.5 56.0625 34.0208 56 33.5625 55.875ZM7.5 50H12.5V32.5H7.5V50Z" fill="white"/>
</svg>
