<svg width="24" height="25" viewBox="0 0 24 25" fill="none" xmlns="http://www.w3.org/2000/svg">
<g clip-path="url(#clip0_251_640)">
<path d="M13 8.03873C13.7956 8.03873 14.5587 8.35633 15.1213 8.92167C15.6839 9.487 16 10.2538 16 11.0533C16 11.3198 16.1054 11.5753 16.2929 11.7638C16.4804 11.9522 16.7348 12.0581 17 12.0581C17.2652 12.0581 17.5196 11.9522 17.7071 11.7638C17.8946 11.5753 18 11.3198 18 11.0533C18 9.72075 17.4732 8.44283 16.5355 7.50061C15.5979 6.55839 14.3261 6.02905 13 6.02905C12.7348 6.02905 12.4804 6.13492 12.2929 6.32336C12.1054 6.51181 12 6.76739 12 7.03389C12 7.30039 12.1054 7.55598 12.2929 7.74442C12.4804 7.93287 12.7348 8.03873 13 8.03873Z" fill="white"/>
<path d="M13.2 2.41162C15.4278 2.41162 17.5644 3.3009 19.1397 4.88383C20.715 6.46676 21.6 8.61367 21.6 10.8523C21.6 11.1721 21.7264 11.4788 21.9515 11.7049C22.1765 11.931 22.4817 12.0581 22.8 12.0581C23.1183 12.0581 23.4235 11.931 23.6485 11.7049C23.8736 11.4788 24 11.1721 24 10.8523C24 7.97407 22.8621 5.21375 20.8367 3.17856C18.8114 1.14336 16.0643 0 13.2 0C12.8817 0 12.5765 0.12704 12.3515 0.353173C12.1264 0.579306 12 0.886008 12 1.20581C12 1.52561 12.1264 1.83231 12.3515 2.05844C12.5765 2.28458 12.8817 2.41162 13.2 2.41162ZM23.7 16.7728C23.634 16.5792 23.5201 16.4057 23.3689 16.2686C23.2178 16.1315 23.0344 16.0353 22.836 15.989L15.636 14.3371C15.4406 14.2925 15.2371 14.2979 15.0443 14.3527C14.8515 14.4074 14.6753 14.5098 14.532 14.6506C14.364 14.8073 14.352 14.8194 13.572 16.3146C10.9838 15.1162 8.90999 13.0238 7.728 10.4182C9.252 9.64647 9.264 9.64647 9.42 9.4656C9.56005 9.32157 9.66198 9.14459 9.71648 8.95082C9.77098 8.75704 9.77631 8.55263 9.732 8.35625L8.088 1.20581C8.04197 1.00648 7.94623 0.822206 7.80977 0.670323C7.67332 0.51844 7.50064 0.403948 7.308 0.337626C7.02776 0.237049 6.73837 0.164352 6.444 0.120581C6.1407 0.0499147 5.8312 0.00952509 5.52 0C4.056 0 2.65197 0.584385 1.61677 1.6246C0.58157 2.66481 0 4.07564 0 5.54672C0.0063503 10.4697 1.95538 15.1892 5.41968 18.6703C8.88398 22.1513 13.5807 24.1098 18.48 24.1162C19.2049 24.1162 19.9227 23.9727 20.5924 23.6939C21.2621 23.4152 21.8706 23.0066 22.3832 22.4916C22.8958 21.9765 23.3024 21.365 23.5798 20.6921C23.8572 20.0191 24 19.2979 24 18.5694C24.0004 18.2625 23.9763 17.9561 23.928 17.653C23.8776 17.3535 23.8013 17.059 23.7 16.7728Z" fill="white"/>
</g>
<defs>
<clipPath id="clip0_251_640">
<rect width="24" height="24.1162" fill="white"/>
</clipPath>
</defs>
</svg>
