<svg width="26" height="27" viewBox="0 0 26 27" fill="none" xmlns="http://www.w3.org/2000/svg">
<path d="M24.9167 3.27443C24.8045 3.26281 24.6913 3.26281 24.5791 3.27443H1.51985C1.37206 3.27671 1.22525 3.29897 1.08337 3.34058L12.9836 15.2401L24.9167 3.27443Z" fill="white"/>
<path d="M25.9025 4.35431L14.0725 16.2223C13.768 16.5271 13.3562 16.6983 12.9269 16.6983C12.4976 16.6983 12.0857 16.5271 11.7812 16.2223L0.056875 4.44434C0.020832 4.57779 0.00172143 4.7153 0 4.85358V21.2232C0 21.6573 0.171205 22.0737 0.475951 22.3807C0.780698 22.6877 1.19402 22.8601 1.625 22.8601H24.375C24.806 22.8601 25.2193 22.6877 25.524 22.3807C25.8288 22.0737 26 21.6573 26 21.2232V4.85358C25.9935 4.68306 25.9606 4.5146 25.9025 4.35431Z" fill="white"/>
</svg>
