<svg width="24" height="24" viewBox="0 0 24 24" fill="none" xmlns="http://www.w3.org/2000/svg">
<g clip-path="url(#clip0_165_2205)">
<path d="M12 0C5.37251 0 0 5.37251 0 12C0 18.6275 5.37251 24 12 24C18.6275 24 24 18.6275 24 12C24 5.37251 18.6275 0 12 0ZM13.0362 18.5061V20.1962H11.4196V18.5251C8.76675 18.1618 7.60506 15.9821 7.60506 15.9821L9.25636 14.6008C9.25636 14.6008 10.3107 16.4362 12.218 16.4362C13.2715 16.4362 14.0707 15.8723 14.0707 14.9088C14.0707 12.6564 8.0022 12.9297 8.0022 8.75107C8.0022 6.93464 9.43883 5.62598 11.4187 5.31636V3.62791H13.0354V5.31636C14.4159 5.498 16.0506 6.22458 16.0506 7.78753V8.98638H13.9073V8.40512C13.9073 7.8057 13.1435 7.40608 12.289 7.40608C11.1991 7.40608 10.4007 7.95101 10.4007 8.71391C10.4007 11.0208 16.4692 10.4577 16.4692 14.8361C16.4692 16.636 15.1251 18.1965 13.0362 18.5061Z" fill="#D72128"/>
</g>
<defs>
<clipPath id="clip0_165_2205">
<rect width="24" height="24" fill="white"/>
</clipPath>
</defs>
</svg>
