<svg width="60" height="60" viewBox="0 0 60 60" fill="none" xmlns="http://www.w3.org/2000/svg">
<path d="M25.625 44.125L20.3125 38.8125C19.8125 38.3125 19.5625 37.7083 19.5625 37C19.5625 36.2917 19.8125 35.6875 20.3125 35.1875C20.8125 34.6875 21.4167 34.4375 22.125 34.4375C22.8333 34.4375 23.4375 34.6875 23.9375 35.1875L27.375 38.625L36.0625 29.9375C36.5625 29.4375 37.1667 29.1875 37.875 29.1875C38.5833 29.1875 39.1875 29.4375 39.6875 29.9375C40.1875 30.4375 40.4375 31.0417 40.4375 31.75C40.4375 32.4583 40.1875 33.0625 39.6875 33.5625L29.125 44.125C28.625 44.625 28.0417 44.875 27.375 44.875C26.7083 44.875 26.125 44.625 25.625 44.125ZM12.5 55C11.125 55 9.9475 54.5108 8.9675 53.5325C7.98917 52.5525 7.5 51.375 7.5 50V15C7.5 13.625 7.98917 12.4483 8.9675 11.47C9.9475 10.49 11.125 10 12.5 10H15V7.5C15 6.79167 15.2392 6.1975 15.7175 5.7175C16.1975 5.23917 16.7917 5 17.5 5C18.2083 5 18.8025 5.23917 19.2825 5.7175C19.7608 6.1975 20 6.79167 20 7.5V10H40V7.5C40 6.79167 40.24 6.1975 40.72 5.7175C41.1983 5.23917 41.7917 5 42.5 5C43.2083 5 43.8017 5.23917 44.28 5.7175C44.76 6.1975 45 6.79167 45 7.5V10H47.5C48.875 10 50.0525 10.49 51.0325 11.47C52.0108 12.4483 52.5 13.625 52.5 15V50C52.5 51.375 52.0108 52.5525 51.0325 53.5325C50.0525 54.5108 48.875 55 47.5 55H12.5ZM12.5 50H47.5V25H12.5V50ZM12.5 20H47.5V15H12.5V20ZM12.5 20V15V20Z" fill="white"/>
</svg>
