<svg width="30" height="30" viewBox="0 0 30 30" fill="none" xmlns="http://www.w3.org/2000/svg">
<path d="M15 0C6.71652 0 0 6.71652 0 15C0 23.2835 6.71652 30 15 30C23.2835 30 30 23.2835 30 15C30 6.71652 23.2835 0 15 0ZM16.2221 18.7098C14.7522 20.779 11.7991 21.3817 9.49554 20.4944C7.18527 19.6138 5.54464 17.173 5.74219 14.6853C5.79241 11.6417 8.59487 8.97321 11.6384 9.07701C13.0982 9.01004 14.471 9.64286 15.5893 10.5368C15.1105 11.0792 14.6183 11.6016 14.0893 12.0871C12.7467 11.1596 10.8348 10.8951 9.49219 11.9665C7.57031 13.2958 7.48326 16.433 9.33147 17.8627C11.1295 19.4933 14.5279 18.683 15.0268 16.1853C13.9018 16.1685 12.7701 16.1853 11.6451 16.1484C11.6417 15.4754 11.6384 14.8058 11.6417 14.1328C13.5234 14.1261 15.4085 14.1228 17.2935 14.1395C17.404 15.7232 17.1931 17.404 16.2221 18.7098ZM24.3415 15.8203C23.779 15.827 23.2165 15.8304 22.654 15.8337C22.6473 16.3962 22.644 16.9587 22.644 17.5212H20.9598C20.9531 16.9587 20.9531 16.3996 20.9498 15.8371C20.3873 15.8304 19.8248 15.827 19.2623 15.8203V14.1429C19.8248 14.1362 20.3873 14.1328 20.9498 14.1328C20.9531 13.5703 20.9598 13.0078 20.9632 12.4453H22.644L22.654 14.1328C23.2165 14.1395 23.779 14.1395 24.3415 14.1429V15.8203Z" fill="#E64654"/>
</svg>
