<svg width="30" height="24" viewBox="0 0 30 24" fill="none" xmlns="http://www.w3.org/2000/svg">
<path d="M30 2.84122C28.8767 3.33109 27.6852 3.65248 26.4652 3.79468C27.7503 3.03774 28.7119 1.84664 29.1709 0.443368C27.963 1.14928 26.6413 1.64636 25.2629 1.91307C24.687 1.3084 23.9912 0.826597 23.2184 0.497521C22.4456 0.168446 21.6125 -0.000891376 20.7705 3.52855e-06C17.3717 3.52855e-06 14.6157 2.71235 14.6157 6.05906C14.6157 6.53349 14.6702 6.99642 14.7754 7.44017C9.66001 7.18742 5.12513 4.77499 2.0894 1.1088C1.54205 2.03352 1.25443 3.08494 1.25605 4.1552C1.25525 5.15278 1.50476 6.1351 1.98244 7.01489C2.46011 7.89468 3.15114 8.6447 3.99413 9.19829C3.01691 9.16773 2.06123 8.9079 1.20658 8.44042C1.2058 8.46574 1.2058 8.49067 1.2058 8.51675C1.2058 11.4515 3.32714 13.9004 6.14236 14.4577C5.23587 14.6993 4.28543 14.7347 3.36299 14.5612C4.14607 16.9679 6.41897 18.7203 9.11224 18.7694C6.93204 20.4537 4.23978 21.3673 1.46838 21.3632C0.97165 21.3632 0.481929 21.3348 0 21.2784C2.81418 23.0585 6.08943 24.0033 9.43444 24C20.7553 24 26.946 14.768 26.946 6.76208C26.946 6.49974 26.9397 6.23779 26.928 5.97737C28.1337 5.12052 29.174 4.05843 30 2.84122Z" fill="#0FB7FF"/>
</svg>
