<svg width="36" height="36" viewBox="0 0 36 36" fill="none" xmlns="http://www.w3.org/2000/svg">
<g clip-path="url(#clip0_317_890)">
<path d="M3.28141 18.2628C3.17338 18.263 3.06646 18.2845 2.96675 18.3261C2.86704 18.3677 2.77649 18.4285 2.70027 18.505C2.62405 18.5816 2.56366 18.6724 2.52253 18.7723C2.48141 18.8722 2.46037 18.9792 2.46061 19.0872V32.706C2.46061 33.1614 2.82781 33.5304 3.28141 33.5304H26.982C27.1999 33.5294 27.4084 33.4421 27.562 33.2876C27.7155 33.133 27.8015 32.9239 27.801 32.706V19.0872C27.8015 18.8693 27.7155 18.6602 27.562 18.5056C27.4084 18.3511 27.1999 18.2638 26.982 18.2628H3.28141ZM26.982 15.7932C28.7928 15.7932 30.2616 17.2674 30.2616 19.0872V32.706C30.2616 34.524 28.7928 36 26.982 36H3.28141C2.84963 35.9993 2.42222 35.9135 2.0236 35.7476C1.62498 35.5816 1.26296 35.3388 0.958232 35.0329C0.653502 34.727 0.412031 34.364 0.247616 33.9648C0.0831998 33.5655 -0.000938536 33.1378 7.89649e-06 32.706V19.0872C7.89649e-06 17.2674 1.46881 15.7932 3.28141 15.7932H26.982ZM36 22.842V29.1096C36 29.8926 35.2854 30.4776 34.5222 30.3192L31.9428 29.7864V27.2628L33.5394 27.594V24.3684L31.9428 24.7086V22.1832L34.5132 21.6342C34.6927 21.5961 34.8785 21.5986 35.0569 21.6416C35.2353 21.6845 35.4019 21.7668 35.5444 21.8824C35.6869 21.998 35.8018 22.144 35.8806 22.3097C35.9595 22.4754 36.0002 22.6585 36 22.842ZM9.02341 23.6466C7.21081 23.6466 5.74201 25.1226 5.74201 26.9406C5.74201 28.7586 7.21081 30.2346 9.02341 30.2346C10.836 30.2346 12.3048 28.7586 12.3048 26.9406C12.3048 25.1226 10.836 23.6466 9.02341 23.6466ZM9.02341 25.2936C9.92881 25.2936 10.6632 26.0316 10.6632 26.9406C10.6637 27.1564 10.6216 27.3702 10.5395 27.5698C10.4573 27.7693 10.3367 27.9508 10.1844 28.1037C10.0321 28.2567 9.85124 28.3781 9.65203 28.4611C9.45283 28.5442 9.23922 28.5871 9.02341 28.5876C8.80744 28.5874 8.59364 28.5446 8.39423 28.4616C8.19481 28.3787 8.0137 28.2573 7.86124 28.1044C7.70878 27.9514 7.58796 27.7699 7.5057 27.5702C7.42343 27.3705 7.38133 27.1566 7.38181 26.9406C7.38181 26.0298 8.11621 25.2936 9.02341 25.2936ZM22.8582 0.18C23.7756 0.181653 24.6837 0.363984 25.5306 0.716581C26.3775 1.06918 27.1467 1.58514 27.7942 2.235C28.4417 2.88486 28.9549 3.6559 29.3045 4.50409C29.654 5.35228 29.8331 6.26101 29.8314 7.1784C29.8333 8.09594 29.6544 9.00487 29.305 9.85326C28.9555 10.7017 28.4424 11.4729 27.7949 12.123C27.1473 12.773 26.3781 13.2891 25.531 13.6418C24.684 13.9946 23.7757 14.1769 22.8582 14.1786C21.9408 14.1767 21.0328 13.9941 20.186 13.6413C19.3391 13.2885 18.5701 12.7724 17.9227 12.1223C17.2754 11.4723 16.7624 10.7011 16.4131 9.85285C16.0637 9.00457 15.8849 8.09579 15.8868 7.1784C15.8835 5.32596 16.616 3.54804 17.9234 2.23563C19.2307 0.923231 21.0058 0.183815 22.8582 0.18ZM7.38181 0C8.29935 0.00165298 9.20757 0.184043 10.0546 0.536753C10.9017 0.889463 11.6709 1.40558 12.3185 2.05564C12.966 2.70569 13.4792 3.47694 13.8286 4.32534C14.178 5.17373 14.3569 6.08266 14.355 7.0002C14.3567 7.91774 14.1775 8.82662 13.8279 9.67493C13.4782 10.5232 12.9649 11.2943 12.3172 11.9442C11.6695 12.5941 10.9001 13.11 10.053 13.4625C9.20582 13.815 8.29755 13.9972 7.38001 13.9986C5.52819 13.9943 3.75385 13.2549 2.44695 11.943C1.14005 10.631 0.40754 8.85382 0.410408 7.002C0.408278 6.08461 0.586863 5.17579 0.935966 4.32741C1.28507 3.47904 1.79785 2.70774 2.44504 2.05754C3.09223 1.40735 3.86114 0.890991 4.70789 0.537957C5.55463 0.184923 6.46442 0.00212495 7.38181 0ZM22.86 2.6496C22.2665 2.65078 21.679 2.76886 21.131 2.99709C20.5831 3.22532 20.0855 3.55924 19.6667 3.97978C19.2478 4.40032 18.9159 4.89924 18.6898 5.44806C18.4638 5.99688 18.348 6.58485 18.3492 7.1784C18.348 7.77195 18.4638 8.35992 18.6898 8.90874C18.9159 9.45756 19.2478 9.95648 19.6667 10.377C20.0855 10.7976 20.5831 11.1315 21.131 11.3597C21.679 11.5879 22.2665 11.706 22.86 11.7072C23.4537 11.7063 24.0414 11.5884 24.5895 11.3602C25.1377 11.1321 25.6355 10.7982 26.0545 10.3777C26.4736 9.95709 26.8057 9.45809 27.0318 8.90915C27.258 8.36022 27.3738 7.7721 27.3726 7.1784C27.3738 6.5847 27.258 5.99658 27.0318 5.44765C26.8057 4.89871 26.4736 4.39971 26.0545 3.97914C25.6355 3.55858 25.1377 3.2247 24.5895 2.99657C24.0414 2.76845 23.4537 2.65054 22.86 2.6496ZM7.38361 2.4696C6.7896 2.47054 6.20161 2.58857 5.65325 2.81692C5.10489 3.04527 4.60692 3.37947 4.18782 3.80042C3.76872 4.22136 3.4367 4.72079 3.21075 5.27014C2.9848 5.81949 2.86935 6.408 2.87101 7.002C2.86982 7.59555 2.98556 8.18352 3.21161 8.73234C3.43766 9.28116 3.76959 9.78008 4.18846 10.2006C4.60733 10.6212 5.10492 10.9551 5.65284 11.1833C6.20075 11.4115 6.78826 11.5296 7.38181 11.5308C7.97551 11.5299 8.5632 11.412 9.11133 11.1838C9.65945 10.9557 10.1573 10.6218 10.5763 10.2013C10.9954 9.78069 11.3275 9.28169 11.5536 8.73275C11.7798 8.18382 11.8956 7.5957 11.8944 7.002C11.8961 6.40785 11.7806 5.8192 11.5545 5.26973C11.3284 4.72025 10.9963 4.22075 10.577 3.79978C10.1577 3.37881 9.65948 3.04465 9.11092 2.8164C8.56235 2.58816 7.97416 2.47031 7.38001 2.4696H7.38361Z" fill="#343693"/>
</g>
<defs>
<clipPath id="clip0_317_890">
<rect width="36" height="36" fill="white"/>
</clipPath>
</defs>
</svg>
