<svg width="53" height="44" viewBox="0 0 53 44" fill="none" xmlns="http://www.w3.org/2000/svg">
<path d="M25 43.8125C24.5833 43.8125 24.1767 43.7608 23.78 43.6575C23.385 43.5525 23 43.3958 22.625 43.1875L10.125 36.4375C9.29167 35.9792 8.64583 35.365 8.1875 34.595C7.72917 33.8233 7.5 32.9583 7.5 32V20L1.5 16.6875C1.04167 16.4375 0.708333 16.125 0.5 15.75C0.291667 15.375 0.1875 14.9583 0.1875 14.5C0.1875 14.0417 0.291667 13.625 0.5 13.25C0.708333 12.875 1.04167 12.5625 1.5 12.3125L22.625 0.8125C23 0.604167 23.385 0.447499 23.78 0.342499C24.1767 0.239166 24.5833 0.1875 25 0.1875C25.4167 0.1875 25.8233 0.239166 26.22 0.342499C26.615 0.447499 27 0.604167 27.375 0.8125L51.1875 13.8125C51.6042 14.0208 51.9275 14.3225 52.1575 14.7175C52.3858 15.1142 52.5 15.5417 52.5 16V32C52.5 32.7083 52.26 33.3017 51.78 33.78C51.3017 34.26 50.7083 34.5 50 34.5C49.2917 34.5 48.6983 34.26 48.22 33.78C47.74 33.3017 47.5 32.7083 47.5 32V17.25L42.5 20V32C42.5 32.9583 42.2708 33.8233 41.8125 34.595C41.3542 35.365 40.7083 35.9792 39.875 36.4375L27.375 43.1875C27 43.3958 26.615 43.5525 26.22 43.6575C25.8233 43.7608 25.4167 43.8125 25 43.8125ZM25 23.75L42.125 14.5L25 5.25L7.875 14.5L25 23.75ZM25 38.8125L37.5 32.0625V22.625L27.4375 28.1875C27.0625 28.3958 26.6667 28.5517 26.25 28.655C25.8333 28.76 25.4167 28.8125 25 28.8125C24.5833 28.8125 24.1667 28.76 23.75 28.655C23.3333 28.5517 22.9375 28.3958 22.5625 28.1875L12.5 22.625V32.0625L25 38.8125Z" fill="white"/>
</svg>
