<svg width="60" height="60" viewBox="0 0 60 60" fill="none" xmlns="http://www.w3.org/2000/svg">
<path d="M37.5 9.375V19.6294L31.875 22.9688V17.2856L29.0625 19.0425L22.5 22.9688V17.2856L19.6875 19.0425L10.3125 24.6675L9.375 25.1944V50.625H50.625V9.375H37.5ZM41.25 13.125H46.875V46.875H13.125V27.2456L18.75 23.9062V29.5894L21.5625 27.8325L28.125 23.9062V29.5894L30.9375 27.8325L40.3125 22.2075L41.25 21.6806V13.125ZM16.875 31.875V35.625H20.625V31.875H16.875ZM24.375 31.875V35.625H28.125V31.875H24.375ZM31.875 31.875V35.625H35.625V31.875H31.875ZM39.375 31.875V35.625H43.125V31.875H39.375ZM16.875 39.375V43.125H20.625V39.375H16.875ZM24.375 39.375V43.125H28.125V39.375H24.375ZM31.875 39.375V43.125H35.625V39.375H31.875ZM39.375 39.375V43.125H43.125V39.375H39.375Z" fill="white"/>
</svg>
