<svg width="43" height="43" viewBox="0 0 43 43" fill="none" xmlns="http://www.w3.org/2000/svg">
<path d="M27.7143 34.6172H29.2725L31.4426 28.4454H30.0064L28.5528 33.288H28.4907L27.024 28.4454H25.5247L27.7143 34.6172ZM34.679 28.4454H32.0674V34.6172H33.3465V32.3157H34.5067L35.6517 34.6172H37.0987L35.7858 32.1306C36.3801 31.9145 36.9744 31.3034 36.9744 30.3991C36.9744 29.219 36.1315 28.4443 34.679 28.4443V28.4454ZM33.3465 31.398V29.4042H34.4915C35.1784 29.4042 35.6364 29.7612 35.6364 30.4217C35.6364 31.0729 35.1915 31.3991 34.4729 31.3991H33.3465V31.398Z" fill="#343693"/>
<path d="M22.7221 22.8887H15.0184C14.8333 21.6665 14.7221 20.4443 14.7221 19.185C14.7221 17.9258 14.8333 16.685 15.0184 15.4813H23.6851C23.8518 16.685 23.9814 17.9258 23.9814 19.185C23.9814 20.1109 23.9073 21.0369 23.7962 21.8887C24.9073 20.9628 26.2407 20.2406 27.6851 19.7776V19.185C27.6851 17.9258 27.574 16.7035 27.4258 15.4813H33.6851C33.9814 16.6665 34.1666 17.9072 34.1666 19.185V19.5184C35.4629 19.8332 36.6666 20.3517 37.7777 21.0369C37.8703 20.4443 37.8703 19.8147 37.8703 19.185C37.8703 8.99984 29.537 0.666504 19.3518 0.666504C9.11103 0.666504 0.833252 8.99984 0.833252 19.185C0.833252 29.3702 9.16658 37.7035 19.3518 37.7035C19.9814 37.7035 20.611 37.7035 21.2036 37.611C20.4444 36.3887 19.8888 35.0184 19.5925 33.5369C19.5184 33.6665 19.4444 33.7961 19.3518 33.9258C17.8147 31.7035 16.574 29.2406 15.8147 26.5924H20.2777C20.8518 25.2035 21.6851 23.9628 22.7221 22.8887ZM32.1666 11.7776H26.7036C26.124 9.48402 25.2658 7.27001 24.1481 5.18502C27.5555 6.35169 30.3888 8.70354 32.1666 11.7776ZM19.3518 4.42576C20.8888 6.64799 22.1295 9.12947 22.8888 11.7776H15.8147C16.574 9.12947 17.8147 6.64799 19.3518 4.42576ZM5.01844 22.8887C4.72214 21.7035 4.53696 20.4628 4.53696 19.185C4.53696 17.9072 4.72214 16.6665 5.01844 15.4813H11.2777C11.1295 16.7035 11.0184 17.9258 11.0184 19.185C11.0184 20.4443 11.1295 21.6665 11.2777 22.8887H5.01844ZM6.53696 26.5924H11.9444C12.5925 28.9072 13.4258 31.1295 14.537 33.185C11.164 32.0214 8.32371 29.6808 6.53696 26.5924ZM11.9444 11.7776H6.53696C8.31261 8.67986 11.1569 6.33592 14.537 5.18502C13.4258 7.24058 12.5925 9.4628 11.9444 11.7776Z" fill="#343693"/>
<path fill-rule="evenodd" clip-rule="evenodd" d="M31.6975 40.404C36.5982 40.404 40.5709 36.4312 40.5709 31.5305C40.5709 26.6298 36.5982 22.657 31.6975 22.657C26.7968 22.657 22.824 26.6298 22.824 31.5305C22.824 36.4312 26.7968 40.404 31.6975 40.404ZM31.6975 42.333C37.6635 42.333 42.5 37.4965 42.5 31.5305C42.5 25.5645 37.6635 20.728 31.6975 20.728C25.7314 20.728 20.895 25.5645 20.895 31.5305C20.895 37.4965 25.7314 42.333 31.6975 42.333Z" fill="#343693"/>
</svg>
