<svg width="43" height="43" viewBox="0 0 43 43" fill="none" xmlns="http://www.w3.org/2000/svg">
<path d="M22.7221 22.8887H15.0184C14.8333 21.6665 14.7221 20.4443 14.7221 19.185C14.7221 17.9258 14.8333 16.685 15.0184 15.4813H23.6851C23.8518 16.685 23.9814 17.9258 23.9814 19.185C23.9814 20.1109 23.9073 21.0369 23.7962 21.8887C24.9073 20.9628 26.2407 20.2406 27.6851 19.7776V19.185C27.6851 17.9258 27.574 16.7035 27.4258 15.4813H33.6851C33.9814 16.6665 34.1666 17.9072 34.1666 19.185V19.5184C35.4629 19.8332 36.6666 20.3517 37.7777 21.0369C37.8703 20.4443 37.8703 19.8147 37.8703 19.185C37.8703 8.99984 29.537 0.666504 19.3518 0.666504C9.11103 0.666504 0.833252 8.99984 0.833252 19.185C0.833252 29.3702 9.16658 37.7035 19.3518 37.7035C19.9814 37.7035 20.611 37.7035 21.2036 37.611C20.4444 36.3887 19.8888 35.0184 19.5925 33.5369C19.5184 33.6665 19.4444 33.7961 19.3518 33.9258C17.8147 31.7035 16.574 29.2406 15.8147 26.5924H20.2777C20.8518 25.2035 21.6851 23.9628 22.7221 22.8887ZM32.1666 11.7776H26.7036C26.124 9.48402 25.2658 7.27001 24.1481 5.18502C27.5555 6.35169 30.3888 8.70354 32.1666 11.7776ZM19.3518 4.42576C20.8888 6.64799 22.1295 9.12947 22.8888 11.7776H15.8147C16.574 9.12947 17.8147 6.64799 19.3518 4.42576ZM5.01844 22.8887C4.72214 21.7035 4.53696 20.4628 4.53696 19.185C4.53696 17.9072 4.72214 16.6665 5.01844 15.4813H11.2777C11.1295 16.7035 11.0184 17.9258 11.0184 19.185C11.0184 20.4443 11.1295 21.6665 11.2777 22.8887H5.01844ZM6.53696 26.5924H11.9444C12.5925 28.9072 13.4258 31.1295 14.537 33.185C11.164 32.0214 8.32371 29.6808 6.53696 26.5924ZM11.9444 11.7776H6.53696C8.31261 8.67986 11.1569 6.33592 14.537 5.18502C13.4258 7.24058 12.5925 9.4628 11.9444 11.7776Z" fill="#343693"/>
<path fill-rule="evenodd" clip-rule="evenodd" d="M32.158 28.779L34.687 31.3086L33.5882 34.6052L27.8471 36.3115L30.7116 33.4471C30.9075 33.2512 30.9075 32.9337 30.7116 32.7378C30.5157 32.5419 30.1982 32.5419 30.0023 32.7378L27.2398 35.5003L29.0546 30.0567L32.158 28.779ZM29.0749 29.996C29.0749 29.9959 29.0748 29.9961 29.0749 29.996V29.996ZM25.8363 36.5383L28.1231 29.6793C28.1622 29.5619 28.2262 29.454 28.3106 29.3634C28.395 29.2728 28.4979 29.2014 28.6124 29.154L31.8613 27.8163C31.8614 27.8163 31.8612 27.8164 31.8613 27.8163C32.0189 27.7513 32.1924 27.7343 32.3595 27.7676C32.5267 27.8009 32.6803 27.8829 32.801 28.0034L35.457 30.66C35.4571 30.66 35.4569 30.6599 35.457 30.66C35.5705 30.7734 35.6504 30.9165 35.6872 31.0727C35.724 31.2289 35.7166 31.3922 35.6658 31.5443L34.5172 34.9903C34.4734 35.1221 34.3985 35.2414 34.2988 35.3381C34.1991 35.4348 34.0775 35.506 33.9444 35.5457L26.9013 37.6391C26.7499 37.6841 26.589 37.6867 26.4362 37.6466C26.2835 37.6065 26.1446 37.5253 26.0348 37.4118C25.925 37.2983 25.8484 37.1568 25.8134 37.0028C25.7785 36.8488 25.7864 36.6881 25.8363 36.5383ZM34.7144 31.2265C34.7143 31.2267 34.7145 31.2263 34.7144 31.2265V31.2265ZM33.5651 34.6743C33.5651 34.6746 33.5652 34.6741 33.5651 34.6743V34.6743Z" fill="#343693"/>
<path fill-rule="evenodd" clip-rule="evenodd" d="M34.1815 25.7575C34.3887 25.6716 34.6108 25.6274 34.8351 25.6274C35.0595 25.6274 35.2816 25.6716 35.4888 25.7575C35.696 25.8434 35.8843 25.9692 36.0429 26.1279L37.3214 27.4076C37.6416 27.7278 37.8214 28.1621 37.8214 28.6149C37.8214 29.0677 37.6416 29.502 37.3214 29.8222L35.6159 31.5283C35.4201 31.7242 35.1025 31.7243 34.9066 31.5285C34.7107 31.3326 34.7107 31.0151 34.9065 30.8192L36.612 29.1131C36.7441 28.9809 36.8183 28.8017 36.8183 28.6149C36.8183 28.4281 36.7441 28.2489 36.612 28.1168L35.3335 26.837C35.3334 26.837 35.3335 26.837 35.3335 26.837C35.2681 26.7716 35.1903 26.7196 35.1049 26.6842C35.0193 26.6488 34.9277 26.6305 34.8351 26.6305C34.7426 26.6305 34.6509 26.6488 34.5654 26.6842C34.4799 26.7196 34.4022 26.7715 34.3368 26.837L32.6313 28.5431C32.4355 28.739 32.1179 28.7391 31.922 28.5432C31.7261 28.3474 31.7261 28.0299 31.9219 27.834L33.6274 26.1279C33.6274 26.1279 33.6274 26.1279 33.6274 26.1279M34.1815 25.7575C33.9743 25.8434 33.786 25.9692 33.6274 26.1279L34.1815 25.7575ZM30.4581 31.1538C30.6287 31.0831 30.8116 31.0467 30.9962 31.0467C31.1809 31.0466 31.3638 31.0829 31.5344 31.1536C31.705 31.2242 31.8601 31.3277 31.9907 31.4583C32.2545 31.722 32.4027 32.0796 32.4028 32.4526C32.4029 32.8255 32.2548 33.1832 31.9912 33.447C31.7275 33.7108 31.3699 33.859 30.9969 33.8591C30.6239 33.8592 30.2662 33.7111 30.0024 33.4475C29.8718 33.3169 29.7682 33.1619 29.6975 32.9913C29.6268 32.8207 29.5904 32.6379 29.5903 32.4532C29.5903 32.2685 29.6266 32.0857 29.6972 31.915C29.7679 31.7444 29.8714 31.5894 30.002 31.4588C30.1325 31.3282 30.2875 31.2245 30.4581 31.1538ZM30.9965 32.0497C30.9435 32.0498 30.8911 32.0602 30.8422 32.0805C30.7933 32.1007 30.7489 32.1304 30.7114 32.1679C30.674 32.2053 30.6443 32.2498 30.6241 32.2987C30.6038 32.3476 30.5934 32.4 30.5934 32.453C30.5934 32.5059 30.6039 32.5583 30.6241 32.6072C30.6444 32.6562 30.6741 32.7006 30.7116 32.738C30.7872 32.8136 30.8897 32.8561 30.9967 32.856C31.1036 32.856 31.2061 32.8135 31.2817 32.7379C31.3573 32.6623 31.3997 32.5597 31.3997 32.4528C31.3997 32.3459 31.3572 32.2433 31.2816 32.1678C31.2441 32.1303 31.1997 32.1006 31.1508 32.0804C31.1018 32.0601 31.0494 32.0497 30.9965 32.0497Z" fill="#343693"/>
<path fill-rule="evenodd" clip-rule="evenodd" d="M31.6975 40.404C36.5982 40.404 40.5709 36.4312 40.5709 31.5305C40.5709 26.6298 36.5982 22.657 31.6975 22.657C26.7968 22.657 22.824 26.6298 22.824 31.5305C22.824 36.4312 26.7968 40.404 31.6975 40.404ZM31.6975 42.333C37.6635 42.333 42.5 37.4965 42.5 31.5305C42.5 25.5645 37.6635 20.728 31.6975 20.728C25.7314 20.728 20.895 25.5645 20.895 31.5305C20.895 37.4965 25.7314 42.333 31.6975 42.333Z" fill="#343693"/>
</svg>
