<svg width="30" height="30" viewBox="0 0 30 30" fill="none" xmlns="http://www.w3.org/2000/svg">
<path fill-rule="evenodd" clip-rule="evenodd" d="M1.36351 1.36351C1.99645 0.730579 2.85489 0.375 3.75 0.375H26.25C27.1451 0.375 28.0035 0.73058 28.6365 1.36351C29.2694 1.99645 29.625 2.85489 29.625 3.75V26.25C29.625 27.1451 29.2694 28.0035 28.6365 28.6365C28.0035 29.2694 27.1451 29.625 26.25 29.625H3.75C2.85489 29.625 1.99645 29.2694 1.36351 28.6365C0.73058 28.0035 0.375 27.1451 0.375 26.25V3.75C0.375 2.85489 0.730579 1.99645 1.36351 1.36351ZM3.75 2.625C3.45163 2.625 3.16548 2.74353 2.9545 2.9545C2.74353 3.16548 2.625 3.45163 2.625 3.75V26.25C2.625 26.5484 2.74353 26.8345 2.9545 27.0455C3.16548 27.2565 3.45163 27.375 3.75 27.375H26.25C26.5484 27.375 26.8345 27.2565 27.0455 27.0455C27.2565 26.8345 27.375 26.5484 27.375 26.25V3.75C27.375 3.45163 27.2565 3.16548 27.0455 2.9545C26.8345 2.74353 26.5484 2.625 26.25 2.625H3.75Z" fill="#343693"/>
<path fill-rule="evenodd" clip-rule="evenodd" d="M11.8124 12.4794C12.1605 12.2784 12.5893 12.2784 12.9373 12.4792L20.8126 17.0259C21.1607 17.2269 21.375 17.5983 21.375 18.0002C21.375 18.4021 21.1605 18.7735 20.8125 18.9744L12.9375 23.5209C12.5894 23.7219 12.1606 23.7219 11.8125 23.5209C11.4644 23.3199 11.25 22.9485 11.25 22.5466V13.4536C11.25 13.0517 11.4644 12.6804 11.8124 12.4794ZM13.5 15.4018V20.5981L18.0002 18L13.5 15.4018Z" fill="#343693"/>
<path fill-rule="evenodd" clip-rule="evenodd" d="M13.374 0.564063C13.891 0.908709 14.0307 1.60719 13.6861 2.12416L10.3521 7.12512H16.6479L20.8139 0.876082C21.1586 0.359112 21.8571 0.219416 22.374 0.564063C22.891 0.908709 23.0307 1.60719 22.6861 2.12416L19.3521 7.12512H28.5C29.1213 7.12512 29.625 7.6288 29.625 8.25012C29.625 8.87144 29.1213 9.37512 28.5 9.37512H17.2654C17.2544 9.37528 17.2435 9.37528 17.2325 9.37512H8.26539C8.25445 9.37528 8.2435 9.37528 8.23255 9.37512H1.5C0.87868 9.37512 0.375 8.87144 0.375 8.25012C0.375 7.6288 0.87868 7.12512 1.5 7.12512H7.64792L11.8139 0.876082C12.1586 0.359112 12.8571 0.219416 13.374 0.564063Z" fill="#343693"/>
</svg>
