<svg width="24" height="24" viewBox="0 0 24 24" fill="none" xmlns="http://www.w3.org/2000/svg">
<path d="M12 0C9.3488 0.00294897 6.80708 0.997261 4.93239 2.76482C3.05771 4.53238 2.00314 6.92886 2.00001 9.42857C1.99684 11.4713 2.70454 13.4587 4.01455 15.0857C4.01455 15.0857 4.28728 15.4243 4.33183 15.4731L12 24L19.6718 15.4689C19.7118 15.4234 19.9854 15.0857 19.9854 15.0857L19.9864 15.0831C21.2957 13.4568 22.0031 11.4704 22 9.42857C21.9969 6.92886 20.9423 4.53238 19.0676 2.76482C17.1929 0.997261 14.6512 0.00294897 12 0ZM12 12.8571C11.2808 12.8571 10.5777 12.6561 9.97975 12.2793C9.38175 11.9026 8.91567 11.3671 8.64044 10.7406C8.36521 10.1141 8.2932 9.42477 8.43351 8.75969C8.57382 8.09461 8.92015 7.4837 9.4287 7.00421C9.93726 6.52471 10.5852 6.19817 11.2906 6.06588C11.996 5.93359 12.7271 6.00148 13.3916 6.26098C14.056 6.52048 14.624 6.95993 15.0235 7.52376C15.4231 8.08759 15.6364 8.75046 15.6364 9.42857C15.6352 10.3375 15.2517 11.2089 14.57 11.8517C13.8883 12.4944 12.9641 12.856 12 12.8571Z" fill="#D72128"/>
</svg>
