<svg width="60" height="60" viewBox="0 0 60 60" fill="none" xmlns="http://www.w3.org/2000/svg">
<g clip-path="url(#clip0_313_659)">
<path d="M3.404 21.6L3.952 23.52L3.404 21.6ZM56.596 21.6L57.144 19.676L56.596 21.596V21.6ZM18.32 49.408L20.08 50.368L18.32 49.408ZM41.68 49.408L43.432 48.452L41.676 49.412L41.68 49.408ZM11.984 15.028L10.128 14.288L11.984 15.028ZM8.14 19.256C7.95545 19.7456 7.97012 20.288 8.18087 20.767C8.39161 21.2459 8.78164 21.6231 9.26731 21.8178C9.75297 22.0125 10.2956 22.0091 10.7788 21.8084C11.262 21.6076 11.6473 21.2255 11.852 20.744L8.14 19.256ZM48.008 15.028L49.864 14.288L48.008 15.028ZM48.14 20.744C48.2339 20.993 48.3765 21.2208 48.5595 21.414C48.7426 21.6073 48.9623 21.762 49.2059 21.8692C49.4495 21.9764 49.7121 22.0339 49.9782 22.0383C50.2443 22.0427 50.5086 21.994 50.7556 21.895C51.0027 21.796 51.2274 21.6486 51.4168 21.4616C51.6062 21.2746 51.7563 21.0517 51.8584 20.8059C51.9605 20.5601 52.0126 20.2964 52.0115 20.0303C52.0103 19.7642 51.9561 19.5009 51.852 19.256L48.14 20.744ZM55.996 23.464V36.84H59.996V23.46H55.996V23.464ZM44.84 48H42.672V52H44.84V48ZM17.328 48H15.16V52H17.328V48ZM4 36.84V23.46H0V36.84H4ZM3.952 23.52C20.9767 18.6556 39.0233 18.6556 56.048 23.52L57.144 19.676C39.4029 14.6075 20.5971 14.6075 2.856 19.676L3.952 23.52ZM15.16 48C12.2002 48 9.36159 46.8242 7.26869 44.7313C5.17578 42.6384 4 39.7998 4 36.84H0C0 40.8607 1.59721 44.7167 4.44026 47.5597C7.28331 50.4028 11.1393 52 15.16 52V48ZM16.568 48.452C16.6426 48.3155 16.7524 48.2015 16.8861 48.122C17.0198 48.0424 17.1724 48.0003 17.328 48V52C17.8906 52.001 18.4431 51.8499 18.9268 51.5626C19.4106 51.2753 19.8077 50.8625 20.076 50.368L16.568 48.452ZM20.076 50.368C24.36 42.516 35.636 42.516 39.924 50.368L43.432 48.452C37.632 37.82 22.364 37.82 16.568 48.452L20.076 50.368ZM42.672 48C42.992 48 43.28 48.172 43.432 48.452L39.924 50.368C40.1923 50.8625 40.5894 51.2753 41.0732 51.5626C41.5569 51.8499 42.1094 52.001 42.672 52V48ZM56 36.84C56 39.7998 54.8242 42.6384 52.7313 44.7313C50.6384 46.8242 47.7998 48 44.84 48V52C48.8607 52 52.7167 50.4028 55.5597 47.5597C58.4028 44.7167 60 40.8607 60 36.84H56ZM60 23.46C59.9998 22.6046 59.7209 21.7725 59.2056 21.0898C58.6903 20.407 57.9666 19.9107 57.144 19.676L56.048 23.52C56.0346 23.5165 56.0226 23.5088 56.014 23.498C56.0053 23.4872 56.0004 23.4738 56 23.46H60ZM4 23.46C3.99957 23.4738 3.99466 23.4872 3.98601 23.498C3.97735 23.5088 3.96542 23.5165 3.952 23.52L2.856 19.68C2.03408 19.9145 1.31085 20.4102 0.795591 21.0922C0.280337 21.7741 0.00107079 22.6053 0 23.46H4ZM10.132 14.288L8.144 19.256L11.856 20.744L13.844 15.772L10.132 14.288ZM46.156 15.768L48.144 20.744L51.856 19.256L49.868 14.288L46.156 15.768ZM19.416 12H40.584V8H19.416V12ZM49.868 14.288C49.1261 12.4321 47.8451 10.8411 46.1902 9.72033C44.5354 8.59952 42.5827 8.00031 40.584 8V12C41.7834 11.9998 42.9553 12.3591 43.9485 13.0314C44.9417 13.7038 45.7106 14.6584 46.156 15.772L49.868 14.288ZM13.844 15.768C14.29 14.6551 15.0592 13.7014 16.0523 13.0298C17.0455 12.3582 18.2171 11.9995 19.416 12V8C17.4173 8.00031 15.4646 8.59952 13.8098 9.72033C12.1549 10.8411 10.8739 12.4321 10.132 14.288L13.844 15.768Z" fill="white"/>
</g>
<defs>
<clipPath id="clip0_313_659">
<rect width="60" height="60" fill="white"/>
</clipPath>
</defs>
</svg>
