<svg width="24" height="24" viewBox="0 0 24 24" fill="none" xmlns="http://www.w3.org/2000/svg">
<g clip-path="url(#clip0_165_2201)">
<path fill-rule="evenodd" clip-rule="evenodd" d="M24 12C24 15.1826 22.7357 18.2348 20.4853 20.4853C18.2348 22.7357 15.1826 24 12 24C8.8174 24 5.76516 22.7357 3.51472 20.4853C1.26428 18.2348 0 15.1826 0 12C0 8.8174 1.26428 5.76516 3.51472 3.51472C5.76516 1.26428 8.8174 0 12 0C15.1826 0 18.2348 1.26428 20.4853 3.51472C22.7357 5.76516 24 8.8174 24 12ZM12.3411 6.23071C12.3411 5.93234 12.2226 5.64619 12.0116 5.43521C11.8006 5.22424 11.5145 5.10571 11.2161 5.10571C10.9177 5.10571 10.6316 5.22424 10.4206 5.43521C10.2096 5.64619 10.0911 5.93234 10.0911 6.23071V13.0707L10.4211 13.4007L13.8021 16.7817C13.9051 16.8922 14.0293 16.9809 14.1673 17.0424C14.3053 17.1039 14.4543 17.1369 14.6053 17.1396C14.7564 17.1423 14.9064 17.1145 15.0465 17.0579C15.1866 17.0013 15.3138 16.9171 15.4207 16.8103C15.5275 16.7034 15.6117 16.5762 15.6683 16.4361C15.7249 16.296 15.7527 16.146 15.75 15.9949C15.7473 15.8439 15.7143 15.6949 15.6528 15.5569C15.5913 15.4189 15.5026 15.2947 15.3921 15.1917L12.3411 12.1392V6.23071Z" fill="#D72128"/>
</g>
<defs>
<clipPath id="clip0_165_2201">
<rect width="24" height="24" fill="white"/>
</clipPath>
</defs>
</svg>
