<svg width="60" height="60" viewBox="0 0 60 60" fill="none" xmlns="http://www.w3.org/2000/svg">
<path d="M16.6042 3L13.0282 22.8C12.5061 25.698 19.4006 27.0516 19.2862 30L18.3922 53.4C18.2563 57 21.9682 57 21.9682 57C21.9682 57 25.68 57 25.5441 53.4L24.6502 30C24.5393 27.0552 30.8473 25.752 30.9081 22.8L27.3321 3H25.5441L26.4381 17.4L23.7562 19.2L22.8622 3H21.0742L20.1802 19.2L17.4982 17.4L18.3922 3H16.6042ZM47 3C44.3681 3 39.9768 5.358 38.221 8.8932C36.7548 11.5428 36.2721 17.4648 36.2721 21V30C36.2721 32.9448 40.1699 33.6 41.636 33.6L39.848 53.4C39.5262 56.9856 43.424 57 43.424 57C43.424 57 47 57 47 53.4V3Z" fill="white"/>
</svg>
