<svg width="157" height="93" viewBox="0 0 157 93" fill="none" xmlns="http://www.w3.org/2000/svg">
<path d="M42.0168 52.2201C42.0168 48.0776 42.0168 43.9358 42.0168 39.7944C42.0277 30.1113 49.8912 22.2509 59.5743 22.1824C62.5115 22.1606 65.3833 22.3707 68.1243 23.5397C69.9429 24.2995 71.6204 25.3603 73.0865 26.6776C73.3853 26.9485 73.5378 26.9158 73.8211 26.6667C77.2252 23.672 81.2006 22.2369 85.7363 22.1762C89.1139 22.131 92.3795 22.5326 95.3664 24.1887C101.51 27.596 104.782 32.8399 104.861 39.8722C104.964 48.5436 104.881 57.218 104.897 65.8909C104.897 66.4295 104.8 66.6287 104.207 66.6101C102.671 66.5618 101.132 66.6101 99.5939 66.5914C96.2614 66.5509 93.7819 64.0465 93.7788 60.714C93.7726 53.5789 93.7726 46.4433 93.7788 39.3072C93.7788 36.4105 92.104 34.1707 89.4361 33.478C89.1827 33.4022 88.9217 33.3547 88.6578 33.3364C87.0609 33.2913 85.4561 33.1807 83.8684 33.3862C82.6201 33.5665 81.4679 34.159 80.595 35.0694C79.7222 35.9798 79.1787 37.1559 79.051 38.4106C79.0106 38.8169 78.9934 39.2294 78.9934 39.6372C78.9934 48.3921 78.9971 57.1475 79.0043 65.9034C79.0043 66.4684 78.8627 66.6132 78.2977 66.6085C75.0383 66.5784 71.7785 66.5784 68.5181 66.6085C67.9998 66.6085 67.883 66.4606 67.8846 65.961C67.8981 57.1034 67.9017 48.2457 67.8955 39.3881C67.8955 35.7319 65.4595 33.2897 61.8048 33.3022C60.5596 33.3022 59.3004 33.1932 58.0583 33.3691C56.6819 33.5539 55.4204 34.2352 54.5112 35.2849C53.6019 36.3346 53.1075 37.6804 53.121 39.069C53.121 46.2456 53.121 53.4222 53.121 60.5988C53.121 63.511 51.3855 65.7758 48.6974 66.4264C48.198 66.5433 47.6865 66.6008 47.1736 66.5976C45.656 66.5976 44.1384 66.5774 42.6223 66.6085C42.1414 66.6178 42.0075 66.4933 42.009 66.0015C42.0246 61.4051 42.0168 56.8133 42.0168 52.2201Z" fill="white"/>
<path d="M12.0245 23.4633C14.9321 22.2181 17.9097 22.1169 20.9169 22.2026C29.3812 22.4391 36.6984 29.0808 37.7521 37.4844C37.8633 38.4001 37.9179 39.3218 37.9156 40.2441C37.9156 48.7946 37.9202 57.3446 37.9296 65.894C37.9296 66.4388 37.8206 66.6318 37.2354 66.6084C35.4532 66.5353 33.6554 66.7205 31.8887 66.5228C28.9314 66.1913 26.802 63.7615 26.7989 60.7761C26.7927 53.6411 26.7927 46.5055 26.7989 39.3694C26.7989 35.7209 24.363 33.2865 20.6974 33.299C19.4522 33.299 18.193 33.19 16.9509 33.3706C15.5758 33.5603 14.3172 34.245 13.4108 35.2963C12.5045 36.3476 12.0127 37.6934 12.0276 39.0814C12.0276 48.02 12.0312 56.9596 12.0385 65.9002C12.0385 66.4559 11.9109 66.6115 11.3396 66.6069C8.05847 66.5773 4.77889 66.5835 1.49776 66.6069C1.04481 66.6069 0.915619 66.5041 0.915619 66.0341C0.927033 44.2179 0.926515 22.4018 0.914062 0.585655C0.914062 0.142048 0.999671 -0.00893429 1.47908 0.000404807C3.03559 0.0346482 4.59211 0.0113004 6.14863 0.0144135C9.52783 0.0206395 12.0136 2.49083 12.0214 5.87937C12.0328 11.5378 12.0328 17.1963 12.0214 22.8547L12.0245 23.4633Z" fill="white"/>
<path d="M152.508 44.1074C152.508 55.6256 143.998 65.1608 132.798 66.3998C120.993 67.7088 110.267 59.5807 108.382 47.9037C106.396 35.6072 114.961 24.0221 127.272 22.3535C129.553 22.0545 131.865 22.0923 134.135 22.4656C134.57 22.5356 134.726 22.7364 134.816 23.1504C136.217 29.4792 142.459 33.8437 148.883 32.9705C149.281 32.9176 149.423 33.053 149.591 33.3503C151.467 36.6274 152.472 40.3312 152.508 44.1074ZM141.38 44.3409C141.379 42.1491 140.729 40.0069 139.511 38.1848C138.293 36.3627 136.562 34.9426 134.537 34.1039C132.512 33.2651 130.284 33.0454 128.134 33.4726C125.985 33.8997 124.01 34.9545 122.459 36.5036C120.909 38.0527 119.852 40.0267 119.424 42.176C118.995 44.3253 119.212 46.5536 120.049 48.5791C120.886 50.6047 122.305 52.3367 124.126 53.5563C125.947 54.7759 128.089 55.4283 130.281 55.431C131.739 55.4358 133.184 55.1522 134.532 54.5967C135.88 54.0411 137.105 53.2245 138.136 52.1939C139.168 51.1633 139.986 49.9389 140.542 48.5912C141.099 47.2435 141.384 45.799 141.38 44.3409Z" fill="white"/>
<path d="M113.685 70.263C115.326 70.263 116.968 70.2832 118.607 70.2505C119.094 70.2412 119.198 70.3922 119.229 70.8576C119.381 73.694 120.614 76.3645 122.674 78.3195C124.735 80.2745 127.467 81.3652 130.307 81.3672C136.199 81.3563 141.105 76.6867 141.358 70.8342C141.377 70.3922 141.47 70.2474 141.942 70.2505C145.284 70.2739 148.627 70.2692 151.969 70.2505C152.383 70.2505 152.526 70.3315 152.514 70.7875C152.203 81.817 144.036 90.8666 133.057 92.3017C121.493 93.8255 110.555 85.8235 108.469 74.3286C108.27 73.1776 108.145 72.0152 108.094 70.8482C108.066 70.333 108.25 70.2459 108.704 70.2536C110.363 70.2785 112.024 70.263 113.685 70.263Z" fill="white"/>
<path d="M147.275 29.4902C145.447 29.4815 143.663 28.9314 142.147 27.9093C140.632 26.8871 139.453 25.4388 138.761 23.7472C138.068 22.0557 137.892 20.1968 138.255 18.4054C138.619 16.614 139.505 14.9704 140.802 13.6822C142.098 12.3941 143.748 11.5192 145.542 11.168C147.336 10.8168 149.193 11.0051 150.88 11.7092C152.567 12.4132 154.007 13.6014 155.019 15.1236C156.031 16.6458 156.569 18.4337 156.566 20.2616C156.562 21.4778 156.319 22.6815 155.85 23.8037C155.382 24.926 154.696 25.9448 153.833 26.8019C152.97 27.659 151.947 28.3376 150.822 28.7989C149.696 29.2602 148.491 29.4951 147.275 29.4902Z" fill="#D72128"/>
</svg>
