<svg width="212" height="80" viewBox="0 0 212 80" fill="none" xmlns="http://www.w3.org/2000/svg">
<path d="M201.728 0H9.40721C6.91347 0.000284169 4.52185 0.990604 2.7579 2.75334C0.993955 4.51608 0.00199475 6.90702 0 9.40076V70.5992C0.000141025 71.8343 0.243609 73.0572 0.716495 74.1981C1.18938 75.339 1.88242 76.3755 2.75601 77.2485C3.62961 78.1215 4.66665 78.8139 5.80788 79.286C6.94912 79.7581 8.17218 80.0007 9.40721 80H201.728C202.963 80.001 204.186 79.7585 205.327 79.2864C206.468 78.8143 207.505 78.1219 208.378 77.2488C209.251 76.3756 209.943 75.3389 210.415 74.1979C210.888 73.0569 211.13 71.834 211.129 70.5992V9.40076C211.129 6.90752 210.139 4.5164 208.376 2.75342C206.613 0.990435 204.221 0 201.728 0ZM40.5789 25.15L26.4843 55.3606C26.418 55.5048 26.312 55.6272 26.1787 55.7135C26.0455 55.7997 25.8904 55.8462 25.7317 55.8476H25.2748C25.116 55.8465 24.9608 55.8001 24.8275 55.7138C24.6942 55.6275 24.5883 55.505 24.5222 55.3606L10.5156 25.15C10.2479 24.5641 10.606 23.9868 11.2811 23.9868H17.2458C17.4055 23.9921 17.5607 24.0402 17.6954 24.1261C17.83 24.2119 17.9392 24.3324 18.0113 24.4749L25.4113 40.8552H25.679L33.0844 24.4749C33.1564 24.3323 33.2655 24.2118 33.4002 24.1259C33.5349 24.04 33.6902 23.992 33.8498 23.9868H39.8135C40.4897 23.9868 40.8477 24.5641 40.5789 25.15ZM67.8255 54.0963C68.148 54.6822 67.8255 55.3983 67.06 55.3983H61.0953C60.9504 55.4001 60.8076 55.3644 60.6806 55.2947C60.5536 55.225 60.4469 55.1236 60.3707 55.0005L54.4059 43.1022H51.3042V54.5435C51.2999 54.767 51.21 54.9803 51.0529 55.1394C50.8959 55.2985 50.6837 55.3911 50.4603 55.3983H45.1116C44.9999 55.3981 44.8893 55.3758 44.7863 55.3327C44.6833 55.2896 44.5898 55.2264 44.5113 55.147C44.4328 55.0675 44.3709 54.9732 44.3291 54.8696C44.2873 54.7661 44.2664 54.6552 44.2677 54.5435V37.4063H57.9549C59.7933 37.4063 61.3641 35.6969 61.3641 33.8079C61.3559 32.9062 60.9941 32.0438 60.3565 31.4062C59.7189 30.7687 58.8565 30.4069 57.9549 30.3987H44.2677V24.8318C44.2674 24.7208 44.289 24.6109 44.3313 24.5083C44.3736 24.4058 44.4357 24.3125 44.5141 24.234C44.5926 24.1555 44.6857 24.0933 44.7882 24.0508C44.8908 24.0084 45.0007 23.9866 45.1116 23.9868H58.5311C63.9185 23.9868 68.3222 28.341 68.3222 33.6789C68.3222 37.8041 65.5785 41.124 61.6726 42.6948L67.8255 54.0963ZM207.953 70.5992C207.952 72.2499 207.296 73.8327 206.129 74.9999C204.962 76.1672 203.379 76.8233 201.728 76.8241H81.2783V3.1791H201.728C203.379 3.17995 204.962 3.83606 206.129 5.00327C207.296 6.17048 207.952 7.7533 207.953 9.40399V70.5992Z" fill="#BC2030"/>
<path d="M93.7495 24.8296C93.7494 24.7176 93.7713 24.6067 93.8141 24.5032C93.8569 24.3997 93.9197 24.3056 93.9989 24.2264C94.0781 24.1472 94.1721 24.0845 94.2756 24.0417C94.3791 23.9989 94.4901 23.9769 94.6021 23.9771H105.421C110.943 23.9771 115.475 28.4656 115.475 33.8971C115.475 39.4629 110.943 43.9977 105.465 43.9977H100.755V54.5467C100.747 54.7705 100.655 54.9831 100.496 55.1413C100.338 55.2996 100.125 55.3918 99.9013 55.3993H94.6096C94.3835 55.3993 94.1666 55.3095 94.0067 55.1496C93.8469 54.9897 93.757 54.7728 93.757 54.5467L93.7495 24.8296ZM105.017 37.4439C105.483 37.4467 105.946 37.3569 106.378 37.1796C106.809 37.0023 107.202 36.7411 107.532 36.4111C107.862 36.0811 108.123 35.6888 108.3 35.2571C108.478 34.8254 108.567 34.3627 108.565 33.896C108.565 32.0103 106.952 30.575 105.017 30.575H100.755V37.4428L105.017 37.4439Z" fill="#BC2030"/>
<path d="M120.053 24.8296C120.053 24.7176 120.075 24.6066 120.118 24.5031C120.161 24.3996 120.224 24.3056 120.303 24.2264C120.383 24.1472 120.477 24.0844 120.58 24.0416C120.684 23.9989 120.795 23.9769 120.907 23.9771H126.248C126.473 23.9827 126.687 24.0741 126.847 24.2326C127.007 24.391 127.1 24.6046 127.108 24.8296V48.8046H137.791C138.018 48.8046 138.234 48.8944 138.394 49.0543C138.554 49.2142 138.644 49.431 138.644 49.6571V54.5499C138.644 54.7761 138.554 54.9929 138.394 55.1528C138.234 55.3127 138.018 55.4025 137.791 55.4025H120.912C120.686 55.4025 120.469 55.3127 120.309 55.1529C120.149 54.993 120.059 54.7762 120.059 54.5499L120.053 24.8296Z" fill="#BC2030"/>
<path d="M142.182 24.8296C142.19 24.6057 142.282 24.393 142.441 24.2347C142.599 24.0764 142.812 23.9843 143.036 23.9771H148.557C148.669 23.9768 148.78 23.9986 148.883 24.0414C148.987 24.0841 149.081 24.1469 149.16 24.2261C149.24 24.3053 149.303 24.3994 149.345 24.5029C149.388 24.6065 149.41 24.7175 149.41 24.8296V43.0162C149.41 46.1576 151.744 48.6723 154.932 48.6723C158.163 48.6723 160.543 46.1576 160.543 43.0162V24.8296C160.543 24.7176 160.565 24.6067 160.608 24.5032C160.65 24.3997 160.713 24.3056 160.792 24.2264C160.872 24.1473 160.966 24.0845 161.069 24.0417C161.173 23.9989 161.283 23.9769 161.395 23.9771H166.917C167.141 23.9843 167.354 24.0764 167.512 24.2347C167.671 24.393 167.763 24.6057 167.771 24.8296V43.3688C167.771 50.1925 162.024 55.8487 154.932 55.8487C147.883 55.8487 142.182 50.1925 142.182 43.3688V24.8296Z" fill="#BC2030"/>
<path d="M173.2 51.1354L175.311 47.4091C175.67 46.8253 176.522 46.9156 176.837 47.1392C177.016 47.2295 180.249 49.612 183.21 49.612C185.006 49.612 186.309 48.4896 186.309 46.9188C186.309 45.0342 184.737 43.5967 181.686 42.3851C177.825 40.8584 172.978 37.8503 172.978 32.464C172.978 28.0205 176.435 23.5309 183.348 23.5309C188.016 23.5309 191.607 25.9101 192.954 26.8971C193.492 27.2121 193.403 28.0205 193.224 28.3345L190.934 31.791C190.62 32.2844 189.813 32.6887 189.409 32.3747C189.004 32.149 185.727 29.6805 182.988 29.6805C181.375 29.6805 180.16 30.7556 180.16 31.9705C180.16 33.6305 181.506 34.8883 185.054 36.3247C188.555 37.7159 194.122 40.4553 194.122 46.5597C194.122 51.1827 190.126 55.8519 183.527 55.8519C177.692 55.8519 174.459 53.4275 173.428 52.3954C172.972 51.9396 172.838 51.7633 173.2 51.1354Z" fill="#BC2030"/>
</svg>
