<svg width="150" height="96" viewBox="0 0 150 96" fill="none" xmlns="http://www.w3.org/2000/svg">
<path d="M49.3883 78.8514H22.386V95.803H49.3883V78.8514Z" fill="#FF005C"/>
<path d="M49.3883 53.4157V44.4849L54.3888 53.4157H95.6079L100.608 44.4849V53.4157H127.61V0H100.608L74.9983 45.7402L49.3883 0H22.386V53.4157H49.3883Z" fill="#FF005C"/>
<path d="M68.6301 78.8514L74.9984 90.2251L81.3659 78.8514H68.6301Z" fill="#FF005C"/>
<path d="M127.611 78.8514H100.608V95.803H127.611V78.8514Z" fill="#FF005C"/>
<path d="M0 61.375H2.78745L5.4317 66.0974L8.07595 61.375H10.8642V71.2663H8.07595V65.9677L5.4317 70.6901L2.78745 65.9677V71.2663H0V61.375Z" fill="#23262B"/>
<path d="M15.4497 63.8655V64.9742H20.1486V67.4654H15.4497V68.7751H20.608V71.2663H12.6615V61.375H20.608V63.8655H15.4497Z" fill="#23262B"/>
<path d="M24.4744 63.8655H21.5575V61.375H30.1794V63.8655H27.2618V71.2663H24.4744V63.8655Z" fill="#23262B"/>
<path d="M37.0929 69.9413H33.6584L33.1584 71.2663H30.011L33.8016 61.375H36.949L40.7396 71.2663H37.5999L37.0929 69.9413ZM36.3027 67.8828L35.3837 65.4782L34.4495 67.8828H36.3027Z" fill="#23262B"/>
<path d="M45.6729 61.375H50.4008C52.6139 61.375 54.1807 62.7998 54.1807 64.8276C54.1807 66.8554 52.6139 68.2802 50.4008 68.2802H48.4611V71.261H45.6729V61.375ZM50.1711 65.7483C50.8319 65.7483 51.3067 65.3601 51.3067 64.8276C51.3067 64.2951 50.8319 63.9069 50.1711 63.9069H48.4611V65.7483H50.1711Z" fill="#23262B"/>
<path d="M62.7605 68.7751V71.2663H55.3738V61.375H58.162V68.7751H62.7605Z" fill="#23262B"/>
<path d="M63.9427 66.8746V61.375H66.7302V66.7304C66.7302 67.9979 67.5205 68.9048 68.6447 68.9048C69.7688 68.9048 70.5591 67.9979 70.5591 66.7304V61.375H73.3466V66.8746C73.3466 69.5531 71.4068 71.439 68.6477 71.439C65.8886 71.439 63.9427 69.5531 63.9427 66.8746Z" fill="#23262B"/>
<path d="M74.287 69.7689L75.8392 67.9114C76.8447 68.7032 77.9375 69.1214 79.1015 69.1214C79.8626 69.1214 80.2655 68.8621 80.2655 68.4309C80.2655 67.9552 79.9201 67.8838 78.5555 67.5669C76.4113 67.0774 74.7618 66.5158 74.7618 64.4565C74.7618 62.4847 76.3132 61.2026 78.6558 61.2026C80.3658 61.2026 81.7021 61.663 82.791 62.5423L81.4026 64.5141C80.4837 63.8512 79.4775 63.5166 78.5861 63.5166C77.9107 63.5166 77.5806 63.7898 77.5806 64.1642C77.5806 64.6683 77.9252 64.8263 79.3335 65.1294C81.6308 65.6181 83.0698 66.2373 83.0698 68.1217C83.0698 70.2093 81.4746 71.4331 79.0027 71.4331C77.2192 71.4392 75.5375 70.8776 74.287 69.7689Z" fill="#23262B"/>
<path d="M94.6087 69.9413H91.1734L90.6687 71.2663H87.5214L91.315 61.375H94.4624L98.2561 71.2663H95.1103L94.6087 69.9413ZM93.8176 67.8828L92.8987 65.4782L91.9652 67.8828H93.8176Z" fill="#7F7F7F"/>
<path d="M103.519 65.4785H108.146V69.6823C107.126 70.791 105.619 71.4393 104.065 71.4393C101.105 71.4393 98.6183 69.0923 98.6183 66.3133C98.6183 63.5343 101.105 61.2019 104.065 61.2019C105.617 61.2019 107.128 61.8502 108.146 62.9443L106.091 64.7443C105.852 64.4323 105.546 64.1792 105.195 64.0044C104.843 63.8296 104.457 63.7379 104.065 63.7361C102.671 63.7361 101.492 64.9169 101.492 66.3133C101.492 67.7243 102.671 68.9051 104.065 68.9051C104.552 68.902 105.03 68.7625 105.443 68.5023V67.5371H103.519V65.4785Z" fill="#7F7F7F"/>
<path d="M112.502 63.8655V64.9742H117.201V67.4654H112.502V68.7751H117.66V71.2663H109.714V61.375H117.66V63.8655H112.502Z" fill="#7F7F7F"/>
<path d="M119.141 61.375H121.93L125.781 66.669V61.375H128.568V71.2663H125.781L121.93 65.9677V71.2663H119.141V61.375Z" fill="#7F7F7F"/>
<path d="M129.992 66.3133C129.992 63.5343 132.449 61.2019 135.367 61.2019C136.118 61.202 136.861 61.3567 137.55 61.6564C138.239 61.9562 138.86 62.3945 139.373 62.9443L137.318 64.7443C136.858 64.1397 136.139 63.7361 135.364 63.7361C134.013 63.7361 132.863 64.9169 132.863 66.3133C132.863 67.7243 134.012 68.9051 135.364 68.9051C136.154 68.9051 136.858 68.5023 137.332 67.8977L139.373 69.6823C138.862 70.2371 138.242 70.6798 137.552 70.9822C136.862 71.2846 136.117 71.4403 135.364 71.4393C132.449 71.4393 129.992 69.0923 129.992 66.3133Z" fill="#7F7F7F"/>
<path d="M143.431 68.0124L139.637 61.375H142.828L144.825 65.3915L146.937 61.375H150L146.221 68.0124V71.2663H143.431V68.0124Z" fill="#7F7F7F"/>
</svg>
