<svg width="110" height="65" viewBox="0 0 110 65" fill="none" xmlns="http://www.w3.org/2000/svg">
<path d="M28.8871 36.7C28.8871 33.7887 28.8871 30.8778 28.8871 27.9673C28.8947 21.162 34.4212 15.6378 41.2264 15.5896C43.2906 15.5743 45.3089 15.722 47.2352 16.5435C48.5133 17.0775 49.6923 17.8231 50.7226 18.7489C50.9327 18.9392 51.0399 18.9162 51.239 18.7412C53.6313 16.6365 56.4252 15.6279 59.6129 15.5853C61.9866 15.5535 64.2817 15.8358 66.3809 16.9997C70.6986 19.3943 72.998 23.0797 73.0538 28.022C73.126 34.1161 73.068 40.2125 73.0789 46.3078C73.0789 46.6863 73.0111 46.8263 72.5943 46.8132C71.5146 46.7793 70.4327 46.8132 69.352 46.8001C67.0099 46.7716 65.2673 45.0115 65.2651 42.6694C65.2607 37.6549 65.2607 32.6401 65.2651 27.6249C65.2651 25.5891 64.0881 24.015 62.2131 23.5282C62.035 23.4749 61.8516 23.4415 61.6661 23.4286C60.5438 23.3969 59.416 23.3192 58.3002 23.4636C57.4229 23.5903 56.6131 24.0067 55.9996 24.6465C55.3862 25.2864 55.0042 26.1129 54.9145 26.9948C54.8861 27.2803 54.874 27.5702 54.874 27.8568C54.874 34.0097 54.8766 40.1629 54.8817 46.3165C54.8817 46.7136 54.7821 46.8154 54.3851 46.8121C52.0944 46.7909 49.8034 46.7909 47.512 46.8121C47.1477 46.8121 47.0657 46.7082 47.0668 46.357C47.0763 40.1319 47.0788 33.9068 47.0744 27.6818C47.0744 25.1122 45.3625 23.3958 42.794 23.4046C41.9188 23.4046 41.0339 23.328 40.1609 23.4516C39.1936 23.5815 38.307 24.0603 37.668 24.798C37.029 25.5357 36.6815 26.4815 36.691 27.4575C36.691 32.5012 36.691 37.5448 36.691 42.5885C36.691 44.6352 35.4713 46.2268 33.5821 46.6841C33.2311 46.7663 32.8717 46.8067 32.5112 46.8044C31.4446 46.8044 30.3781 46.7902 29.3126 46.8121C28.9746 46.8186 28.8805 46.7311 28.8816 46.3855C28.8925 43.1551 28.8871 39.9281 28.8871 36.7Z" fill="#343693"/>
<path d="M7.80835 16.4899C9.85177 15.6148 11.9444 15.5437 14.0579 15.6038C20.0066 15.7701 25.149 20.4378 25.8896 26.3439C25.9677 26.9874 26.0061 27.6351 26.0045 28.2834C26.0045 34.2926 26.0078 40.3015 26.0143 46.31C26.0143 46.6928 25.9378 46.8285 25.5264 46.8121C24.2739 46.7606 23.0104 46.8908 21.7689 46.7519C19.6904 46.5189 18.1939 44.8113 18.1918 42.7132C18.1874 37.6987 18.1874 32.6838 18.1918 27.6686C18.1918 25.1045 16.4798 23.3936 13.9036 23.4023C13.0285 23.4023 12.1435 23.3258 11.2706 23.4527C10.3042 23.586 9.41963 24.0672 8.78265 24.8061C8.14568 25.5449 7.80005 26.4908 7.81053 27.4662C7.81053 33.7482 7.81309 40.0309 7.81819 46.3143C7.81819 46.7049 7.72849 46.8143 7.32702 46.811C5.02106 46.7902 2.71618 46.7946 0.410217 46.811C0.0918886 46.811 0.00109391 46.7388 0.00109391 46.4084C0.00911594 31.0761 0.0087513 15.7439 0 0.411595C0 0.0998305 0.0601652 -0.00627898 0.39709 0.000284497C1.491 0.0243506 2.58491 0.00794188 3.67883 0.0101297C6.05371 0.0145054 7.80069 1.75054 7.80616 4.13199C7.81418 8.10873 7.81418 12.0855 7.80616 16.0622L7.80835 16.4899Z" fill="#343693"/>
<path d="M106.539 30.9984C106.539 39.0934 100.559 45.7947 92.6872 46.6654C84.391 47.5854 76.8528 41.873 75.5281 33.6665C74.1322 25.0246 80.152 16.8826 88.8038 15.7099C90.4067 15.4998 92.0317 15.5263 93.6269 15.7887C93.9331 15.8379 94.0425 15.979 94.106 16.27C95.0905 20.7178 99.4771 23.7852 103.992 23.1715C104.272 23.1343 104.371 23.2295 104.489 23.4384C105.808 25.7415 106.514 28.3445 106.539 30.9984ZM98.719 31.1625C98.7184 29.6222 98.2611 28.1166 97.4051 26.8361C96.5491 25.5555 95.3327 24.5574 93.9096 23.968C92.4865 23.3785 90.9206 23.2241 89.4099 23.5243C87.8991 23.8245 86.5112 24.5658 85.4215 25.6545C84.3319 26.7432 83.5894 28.1305 83.288 29.641C82.9865 31.1516 83.1396 32.7176 83.7279 34.1412C84.3161 35.5647 85.3132 36.782 86.593 37.6391C87.8728 38.4962 89.378 38.9547 90.9183 38.9566C91.9431 38.9599 92.9584 38.7607 93.9059 38.3702C94.8534 37.9798 95.7144 37.4059 96.4393 36.6816C97.1643 35.9573 97.7389 35.0968 98.1301 34.1496C98.5213 33.2024 98.7215 32.1873 98.719 31.1625Z" fill="#343693"/>
<path d="M79.2549 49.3806C80.4079 49.3806 81.562 49.3948 82.7139 49.3718C83.0563 49.3652 83.1296 49.4714 83.1515 49.7984C83.2578 51.7919 84.1243 53.6687 85.5725 55.0427C87.0207 56.4166 88.9405 57.1832 90.9368 57.1845C95.0773 57.1769 98.5253 53.8951 98.7036 49.782C98.7167 49.4714 98.7824 49.3696 99.1138 49.3718C101.462 49.3882 103.812 49.3849 106.161 49.3718C106.452 49.3718 106.552 49.4287 106.544 49.7492C106.325 57.5007 100.585 63.8607 92.8698 64.8693C84.742 65.9402 77.0551 60.3164 75.5892 52.2379C75.4494 51.429 75.3614 50.612 75.3256 49.7919C75.3059 49.4298 75.435 49.3685 75.7544 49.374C76.9205 49.3915 78.0877 49.3806 79.2549 49.3806Z" fill="#343693"/>
<path d="M102.861 20.7255C101.577 20.7194 100.323 20.3328 99.2578 19.6145C98.1928 18.8961 97.3646 17.8782 96.8778 16.6894C96.391 15.5006 96.2675 14.1942 96.5227 12.9352C96.778 11.6762 97.4007 10.5211 98.3121 9.61578C99.2235 8.71048 100.383 8.09559 101.643 7.84878C102.904 7.60197 104.21 7.73432 105.395 8.22911C106.581 8.7239 107.593 9.55893 108.304 10.6287C109.015 11.6985 109.394 12.9551 109.391 14.2397C109.389 15.0945 109.218 15.9404 108.888 16.7291C108.559 17.5178 108.077 18.2338 107.471 18.8362C106.864 19.4386 106.145 19.9155 105.354 20.2397C104.563 20.5639 103.716 20.729 102.861 20.7255Z" fill="#D72128"/>
</svg>
