<svg width="289" height="60" viewBox="0 0 289 60" fill="none" xmlns="http://www.w3.org/2000/svg">
<path d="M158.448 8.09152V8.04586C158.448 3.62262 161.782 0 166.563 0C169.496 0 171.252 0.977193 172.697 2.40036L170.519 4.91184C169.318 3.82201 168.095 3.15685 166.54 3.15685C163.916 3.15685 162.027 5.33499 162.027 8.00172V8.04586C162.027 10.7141 163.872 12.9379 166.54 12.9379C168.318 12.9379 169.407 12.2256 170.63 11.1114L172.808 13.3124C171.208 15.0247 169.429 16.0917 166.429 16.0917C161.849 16.0948 158.448 12.5589 158.448 8.09152Z" fill="#262261"/>
<path d="M177.77 0.266357H184.884C186.863 0.266357 188.397 0.821927 189.42 1.84478C190.286 2.71086 190.754 3.93464 190.754 5.40195V5.44609C190.754 7.95757 189.397 9.53599 187.419 10.2696L191.224 15.8269H187.222L183.887 10.848H181.196V15.8269H177.773L177.77 0.266357ZM184.662 7.81753C186.336 7.81753 187.285 6.92862 187.285 5.61809V5.57242C187.285 4.10663 186.263 3.35015 184.595 3.35015H181.193V7.81753H184.662Z" fill="#262261"/>
<path d="M196.07 0.266357H207.807V3.31057H199.469V6.46895H206.804V9.51316H199.469V12.7811H207.915V15.8253H196.067L196.07 0.266357Z" fill="#262261"/>
<path d="M218.527 0.155273H221.692L228.36 15.833H224.782L223.359 12.3428H216.779L215.355 15.833H211.859L218.527 0.155273ZM222.13 9.31379L220.062 4.26801L217.995 9.31379H222.13Z" fill="#262261"/>
<path d="M234.602 3.42321H229.869V0.266357H242.761V3.42321H238.026V15.8269H234.602V3.42321Z" fill="#262261"/>
<path d="M247.767 0.266357H251.19V15.8269H247.767V0.266357Z" fill="#262261"/>
<path d="M255.973 0.266357H259.752L263.819 11.2255L267.888 0.266357H271.579L265.287 15.9441H262.264L255.973 0.266357Z" fill="#262261"/>
<path d="M276.208 0.266357H287.945V3.31057H279.61V6.46895H286.945V9.51316H279.61V12.7811H288.056V15.8253H276.208V0.266357Z" fill="#262261"/>
<path d="M167.809 36.2687C166.543 37.3129 165.053 38.0024 163.254 38.0024C160.273 38.0024 158.028 36.2687 158.028 33.5122V33.4681C158.028 31.4893 159.094 30.089 161.051 29.2062C160.29 28.1407 159.963 27.1605 159.963 26.0935V26.0493C159.963 23.9184 161.674 21.9579 164.681 21.9579C167.327 21.9579 169.06 23.6931 169.06 25.8712V25.9154C169.06 28.0052 167.727 29.2275 165.793 29.984L167.861 32.051C168.371 31.2504 168.882 30.3386 169.373 29.3827L171.884 30.7618C171.278 31.9033 170.594 33.0023 169.838 34.051L172.121 36.3418L169.608 38.0983L167.809 36.2687ZM165.898 34.3113L162.919 31.2899C161.896 31.8227 161.474 32.5792 161.474 33.3341V33.3783C161.474 34.4681 162.388 35.2048 163.652 35.2048C164.429 35.2017 165.184 34.8684 165.895 34.3113H165.898ZM166.076 26.1087V26.0645C166.076 25.1756 165.476 24.6201 164.608 24.6201C163.695 24.6201 163.097 25.2639 163.097 26.1985V26.2426C163.097 26.9321 163.365 27.4436 164.01 28.1772C165.362 27.6658 166.073 27.0874 166.073 26.1087H166.076Z" fill="#262261"/>
<path d="M177.77 22.2181H181.461L185.551 28.7997L189.641 22.2181H193.332V37.7802H189.932V27.6201L185.551 34.2671H185.466L181.131 27.6871V37.7802H177.773L177.77 22.2181Z" fill="#262261"/>
<path d="M199.294 22.2181H211.037V25.2624H202.696V28.4192H210.033V31.4634H202.696V34.7314H211.144V37.7756H199.294V22.2181Z" fill="#262261"/>
<path d="M216.416 22.2181H222.485C227.375 22.2181 230.755 25.5759 230.755 29.955V29.9992C230.755 34.3783 227.375 37.7802 222.485 37.7802H216.416V22.2181ZM222.485 34.6903C225.286 34.6903 227.176 32.8014 227.176 30.0433V29.9992C227.176 27.2426 225.286 25.3095 222.485 25.3095H219.839V34.6903H222.485Z" fill="#262261"/>
<path d="M236.184 22.2181H239.607V37.7802H236.184V22.2181Z" fill="#262261"/>
<path d="M251.059 22.1069H254.216L260.885 37.7846H257.309L255.886 34.2944H249.303L247.88 37.7846H244.39L251.059 22.1069ZM254.661 31.267L252.591 26.2197L250.524 31.267H254.661Z" fill="#262261"/>
<path d="M164.471 44.0604H167.63L174.298 59.7381H170.72L169.296 56.2479H162.716L161.293 59.7381H157.803L164.471 44.0604ZM168.074 53.2205L166.006 48.1732L163.939 53.2205H168.074Z" fill="#262261"/>
<path d="M177.246 51.9967V51.9586C177.246 47.5354 180.693 43.9113 185.405 43.9113C188.206 43.9113 189.895 44.6723 191.518 46.0422L189.362 48.6435C188.161 47.6435 187.094 47.0651 185.294 47.0651C182.804 47.0651 180.825 49.266 180.825 51.9115V51.9586C180.825 54.8035 182.781 56.8933 185.543 56.8933C186.79 56.8933 187.9 56.5889 188.767 55.9603V53.7304H185.314V50.7744H192.072V57.5326C190.227 59.1316 187.866 60.0081 185.425 59.9999C180.574 59.9999 177.246 56.5995 177.246 51.9967Z" fill="#262261"/>
<path d="M197.585 44.1716H209.322V47.2158H200.991V50.3727H208.326V53.4169H200.991V56.6849H209.437V59.7291H197.589L197.585 44.1716Z" fill="#262261"/>
<path d="M214.705 44.1716H217.864L225.155 53.7609V44.1716H228.541V59.7337H225.628L218.094 49.84V59.7337H214.705V44.1716Z" fill="#262261"/>
<path d="M233.808 51.9967V51.9586C233.808 47.5354 237.143 43.9113 241.922 43.9113C244.857 43.9113 246.612 44.89 248.058 46.3116L245.878 48.8246C244.679 47.7348 243.457 47.0681 241.899 47.0681C239.277 47.0681 237.386 49.2462 237.386 51.9145V51.9586C237.386 54.6269 239.231 56.8492 241.899 56.8492C243.679 56.8492 244.767 56.1383 245.989 55.0226L248.177 57.2206C246.575 58.9329 244.796 59.9999 241.796 59.9999C237.208 59.9999 233.808 56.4656 233.808 51.9967Z" fill="#262261"/>
<path d="M257.286 53.598L251.307 44.1716H255.309L259.022 50.4123L262.801 44.1716H266.69L260.71 53.5311V59.7337H257.286V53.598Z" fill="#262261"/>
<path d="M39.6007 0.112549V22.3886H29.7009L19.8011 37.2383H39.6007V59.5128H59.4002V0.112549H39.6007Z" fill="#262262"/>
<path d="M19.7996 0.112549H0V59.5128H19.7996V0.112549Z" fill="#262261"/>
<path d="M99.0009 0.112549H79.2014V59.5128H99.0009V0.112549Z" fill="url(#paint0_linear_8_530)"/>
<path d="M39.6007 59.5144H59.4003L59.4003 0.114155H39.6007L39.6007 59.5144Z" fill="url(#paint1_linear_8_530)"/>
<path d="M138.6 0.112549H118.801V59.5128H138.6V0.112549Z" fill="#262261"/>
<path d="M39.6006 59.5128H59.4002L99.0009 0.112549H79.2013L39.6006 59.5128Z" fill="#26A9E0"/>
<path d="M79.2014 59.5128H99.0009L138.602 0.112549H118.801L79.2014 59.5128Z" fill="#262262"/>
<defs>
<linearGradient id="paint0_linear_8_530" x1="68.6105" y1="16.2758" x2="109.121" y2="43.039" gradientUnits="userSpaceOnUse">
<stop stop-color="#030031"/>
<stop offset="0.68" stop-color="#262262"/>
</linearGradient>
<linearGradient id="paint1_linear_8_530" x1="69.9896" y1="43.3496" x2="29.4802" y2="16.5864" gradientUnits="userSpaceOnUse">
<stop stop-color="#030031"/>
<stop offset="0.68" stop-color="#262262"/>
</linearGradient>
</defs>
</svg>
